PathFileType	4	(X/Y/Z)	Patient4_TMGait_0pt3_01_right_27.trc.trc
DataRate	CameraRate	NumFrames	NumMarkers	Units	OrigDataRate	OrigDataStartFrame	OrigNumFrames
50.909090909091	50.909090909091	4	33	mm	50.909090909091	71	       141
Frame#	Time	Sacral			L.Shoulder			Chest			R.Shoulder			Neck			R.ASIS			L.ASIS			R.Thigh.Superior			R.Thigh.Lateral			R.Thigh.Inferior			R.Patella			L.Thigh.Superior			L.Thigh.Lateral			L.Thigh.Inferior			L.Patella			L.Shank.Superior			L.Shank.Lateral			L.Shank.Inferior			R.Shank.Superior			R.Shank.Lateral			R.Shank.Inferior			R.Heel			R.Midfoot.Superior			R.Midfoot.Lateral			R.Toe			L.Heel			L.Midfoot.Lateral			L.Midfoot.Superior			L.Toe			L.Elbow			L.Wrist			R.Elbow			R.Wrist			
		X1	Y1	Z1	X2	Y2	Z2	X3	Y3	Z3	X4	Y4	Z4	X5	Y5	Z5	X6	Y6	Z6	X7	Y7	Z7	X8	Y8	Z8	X9	Y9	Z9	X10	Y10	Z10	X11	Y11	Z11	X12	Y12	Z12	X13	Y13	Z13	X14	Y14	Z14	X15	Y15	Z15	X16	Y16	Z16	X17	Y17	Z17	X18	Y18	Z18	X19	Y19	Z19	X20	Y20	Z20	X21	Y21	Z21	X22	Y22	Z22	X23	Y23	Z23	X24	Y24	Z24	X25	Y25	Z25	X26	Y26	Z26	X27	Y27	Z27	X28	Y28	Z28	X29	Y29	Z29	X30	Y30	Z30	X31	Y31	Z31	X32	Y32	Z32	X33	Y33	Z33	

71	51.275000000000	682.896448600330	1002.333898776252	563.381225994520	840.521084629327	1412.520764609030	333.128227270854	971.856337968192	1345.857516402907	473.512211554842	929.558803982114	1436.786453781499	653.469988656868	860.662917265638	1481.892585447715	484.847273918291	922.644146371150	929.898785785633	644.583758384224	869.861574115633	950.000027102919	374.519742168306	924.380519840038	718.592452690081	611.362571068296	829.061342442982	617.931923697094	675.049918783468	887.685935342887	558.004203150989	588.657856566399	870.995077903476	469.962786447740	592.432985963663	941.902689854273	757.887132676355	396.257400839110	876.997303199050	634.154991513421	323.149404395640	979.307096494428	569.716204438097	380.539626848731	1001.863085620781	508.050902043021	377.260342474284	986.596659902247	438.940537970067	364.775915307770	923.565341891130	309.084602224733	310.377040989992	1014.543934549569	210.829174518413	361.155588692176	826.975542210993	386.349205535217	598.101547334116	740.462626103388	294.036566554732	658.955110568047	762.232560403132	196.602967236815	591.750082402850	604.509428959508	43.629544120933	556.489673374461	775.309412345127	95.735524217774	599.918407352756	683.962874660530	36.575873668638	634.940666879519	892.452227512033	41.012633225151	634.627052254484	930.006250937774	37.316176726505	395.490492733214	1004.843578611762	38.728005929469	316.016257270358	1080.405331286281	110.177823285928	339.168213969410	1211.766678117118	72.078354268479	313.726189044668	670.318204758097	1097.176565074477	280.938191074516	612.679080826540	845.642128156027	327.947076243656	1103.697793942467	1161.825620575250	788.721129382509	1351.334081009859	1201.493744964183	733.568115668531	
72	51.294642857143	684.263470594593	1001.728226214920	560.002057104921	841.896888659102	1410.891456790595	328.318011570253	973.326223061683	1344.627594234654	468.871052848383	931.070502887429	1436.205324901560	648.418561550247	861.953325727987	1480.786773456520	479.851162698897	923.899107315694	928.983276695169	641.721208808171	871.324868180953	948.618757469638	371.648381171726	924.271954646340	717.293347757363	609.240611714248	827.793106918251	617.491551586465	673.028475712595	885.865361175129	556.820312533480	586.988826275417	868.158399768084	468.865945244120	590.845899607876	943.263292598354	756.529724689461	393.673612533601	877.044636370311	632.670563902838	321.650968663028	979.607416127161	568.715836315986	378.521581533865	1001.069711179865	506.448141661940	375.814879532750	985.982911308168	436.913648759498	363.347746848596	921.893184721428	307.465587618677	309.683024774950	1011.915742581029	208.835108810388	360.873086513921	823.543195928895	385.635309735208	596.856652123781	736.283797502281	294.246990129990	658.232032402451	757.298912381918	196.418729849123	591.358210730635	598.622415472635	43.964718432007	556.552551906725	769.528012694287	95.713654371063	599.779201391171	678.096708969570	36.702318272835	634.944539831046	886.564251290311	40.889673577365	634.670679808067	925.168611015528	37.288671343751	395.839306361506	999.653672833831	37.996078088246	315.919814301778	1076.567214960040	107.731700658857	339.458669703534	1207.216760032936	67.388280959610	313.155805299032	673.637381030726	1094.305096367432	277.882831336470	615.638010227567	842.900526574737	325.602228912370	1109.099606550653	1164.181310934652	782.586174046706	1355.276176977988	1208.002842364482	724.497790184702	
73	51.314285714286	685.848771052306	1001.265747418042	556.380261013382	843.303458667339	1409.443274910899	323.360279235523	974.878963375021	1343.633715903241	464.064829008201	932.619884891192	1435.810305392160	643.234611734839	863.238698375867	1479.869873473341	474.692649155509	925.385975324866	928.195067479088	638.560509666558	873.036413319806	947.536378417649	368.505844867358	924.424508392581	716.097078569287	606.856169915122	826.831127646660	617.160517001200	670.789429742014	884.372902996127	555.746040369802	585.102703820657	865.663619101151	467.826813035028	589.073961486287	945.309289888693	755.870093759467	391.154608099517	878.323902910756	631.746232553424	320.078919074372	981.109160464478	568.394555093358	376.560328079032	1001.377607352725	505.214891925639	374.406043741654	986.286116896993	435.095794978171	361.951257342567	920.665136141575	306.316968533263	308.858412438939	1009.095830084885	206.882026371469	360.675880933519	820.382859624189	385.034429823340	595.487204882501	732.310757315606	294.662311447131	657.427055705155	752.478720965068	196.381548535471	590.944102540850	592.783505394528	44.581650736821	556.659782273247	763.795646074727	95.702642885382	599.590772258720	672.281815139912	36.981481649741	634.963562248085	880.717735933531	40.700161392236	634.723294469994	919.369698524175	37.390664838120	396.260164900338	993.499273204526	37.316148306354	315.894816767358	1071.846477764595	105.305151863988	339.803866427560	1201.756947507396	62.620506784626	312.638447050885	677.654439715499	1091.249562947507	274.142306083353	620.022776791605	839.757914200528	321.967761267451	1113.807737848714	1166.286948597167	776.543688026442	1358.836537658597	1213.112191991329	716.105956397611	
74	51.333928571429	687.618906305316	1001.013922672769	552.528675218766	844.721174075982	1408.270720945439	318.335395600351	976.504891396630	1342.931473799456	459.141565901366	934.234789106570	1435.640036805520	637.983695485827	864.528850415670	1479.204029444340	469.465820779727	927.063900887729	927.581836909681	635.090829363126	874.946344744288	946.809911905111	365.072308218211	924.744503057784	715.062690045177	604.198608598299	826.102833503701	617.003981792429	668.350248140862	883.142762225333	554.844046725527	583.023264704967	863.451753270190	466.917241808580	587.162383609227	947.917503618539	755.899437971723	388.657912011852	880.704888911774	631.388068552793	318.354789650295	983.643783504249	568.671721118890	374.597152170518	1002.667993265141	504.355591549557	372.989862429184	987.400680089898	433.553750910630	360.574477080187	919.961315765545	305.640233259386	307.839482459231	1006.253713843126	205.080847183178	360.526431335707	817.460956451662	384.614286171688	594.028745196312	728.515344659907	295.336907901763	656.548892444175	747.772326983773	196.549366286644	590.522607372166	587.008104284593	45.555495393393	556.814737232220	758.133089599672	95.717554313521	599.355849553944	666.529824292476	37.461063777866	635.001797235194	874.918478835015	40.435648346631	634.784382657289	913.047388138447	37.569172711690	396.656488871367	986.867637074609	36.734218726580	315.898609795665	1066.576877295245	103.093895262688	340.166257805690	1195.799294014594	58.207713340541	312.231156270387	682.208129726030	1088.220425529505	269.732234396102	625.703537179627	836.411899798126	317.041913819215	1117.915540421882	1168.164757414422	770.607878222805	1362.178635814665	1216.876381294702	708.435328037782	
